<svg width="305" height="67" viewBox="0 0 305 67" fill="none" xmlns="http://www.w3.org/2000/svg">
<path d="M15.2013 51.4549C13.8925 51.4549 12.8938 51.1023 12.2049 50.3971C11.5161 49.6919 11.1717 48.6845 11.1717 47.3749V32.7675L12.8249 37.2504L0.632849 20.3764C0.150678 19.6712 -0.0559663 18.9156 0.0129153 18.1097C0.0817968 17.2702 0.426205 16.5482 1.04614 15.9438C1.66607 15.3393 2.54431 15.0371 3.68086 15.0371C4.50744 15.0371 5.24791 15.2386 5.90229 15.6416C6.5911 16.0445 7.24548 16.6825 7.86541 17.5556L16.1312 29.1912H14.478L22.7438 17.5556C23.3982 16.649 24.0354 16.0109 24.6553 15.6416C25.3097 15.2386 26.0674 15.0371 26.9284 15.0371C28.0305 15.0371 28.8915 15.3225 29.5114 15.8934C30.1314 16.4307 30.4586 17.1191 30.493 17.9586C30.5274 18.7645 30.2347 19.604 29.6148 20.4771L17.5777 37.2504L19.1792 32.7675V47.3749C19.1792 50.0949 17.8532 51.4549 15.2013 51.4549Z" fill="#FF7020"/>
<path d="M42.2665 51.5556C39.5457 51.5556 37.1693 51.0351 35.1373 49.9941C33.1397 48.9532 31.5899 47.4588 30.4877 45.5112C29.3856 43.5635 28.8346 41.2633 28.8346 38.6104C28.8346 36.6292 29.1446 34.8495 29.7645 33.2712C30.3844 31.6929 31.2799 30.3497 32.4509 29.2416C33.6563 28.0998 35.0856 27.2435 36.7388 26.6727C38.3919 26.0682 40.2345 25.766 42.2665 25.766C44.9873 25.766 47.3465 26.2865 49.3441 27.3275C51.3761 28.3685 52.9431 29.846 54.0452 31.7601C55.1818 33.6741 55.7501 35.9576 55.7501 38.6104C55.7501 40.6253 55.4229 42.4218 54.7685 44.0001C54.1486 45.5783 53.2531 46.9383 52.0821 48.0801C50.9111 49.2218 49.4818 50.0949 47.7942 50.6993C46.1411 51.2702 44.2985 51.5556 42.2665 51.5556ZM42.2665 45.8638C43.403 45.8638 44.3846 45.5951 45.2112 45.0579C46.0378 44.5206 46.6921 43.7314 47.1743 42.6904C47.6565 41.6159 47.8976 40.2559 47.8976 38.6104C47.8976 36.1591 47.3809 34.3625 46.3477 33.2208C45.3145 32.0455 43.9541 31.4579 42.2665 31.4579C41.1644 31.4579 40.1828 31.7097 39.3218 32.2134C38.4952 32.7171 37.8409 33.5062 37.3587 34.5808C36.911 35.6218 36.6871 36.965 36.6871 38.6104C36.6871 41.0618 37.2037 42.8919 38.2369 44.1008C39.2701 45.2761 40.6133 45.8638 42.2665 45.8638Z" fill="#FF7020"/>
<path d="M69.8467 51.5556C67.7114 51.5556 65.9377 51.1695 64.5256 50.3971C63.1135 49.6248 62.0631 48.4662 61.3743 46.9216C60.7199 45.3433 60.3927 43.3956 60.3927 41.0786V29.6949C60.3927 28.4188 60.7199 27.4618 61.3743 26.8238C62.0631 26.1858 63.0274 25.8667 64.2673 25.8667C65.5072 25.8667 66.4715 26.1858 67.1603 26.8238C67.8491 27.4618 68.1935 28.4188 68.1935 29.6949V41.2801C68.1935 42.7576 68.5035 43.8658 69.1234 44.6045C69.7434 45.3097 70.7249 45.6623 72.0681 45.6623C73.5491 45.6623 74.7545 45.1586 75.6844 44.1512C76.6487 43.1102 77.1309 41.7502 77.1309 40.0712V29.6949C77.1309 28.4188 77.4581 27.4618 78.1125 26.8238C78.8013 26.1858 79.7656 25.8667 81.0055 25.8667C82.2798 25.8667 83.2441 26.1858 83.8985 26.8238C84.5873 27.4618 84.9317 28.4188 84.9317 29.6949V47.5764C84.9317 50.1621 83.6747 51.4549 81.1605 51.4549C79.9206 51.4549 78.9735 51.1191 78.3191 50.4475C77.6647 49.7759 77.3376 48.8188 77.3376 47.5764V44.2016L78.1125 46.166C77.3548 47.8786 76.2699 49.205 74.8578 50.1453C73.4457 51.0855 71.7754 51.5556 69.8467 51.5556Z" fill="#FF7020"/>
<path d="M94.9976 51.4549C93.6889 51.4549 92.6901 51.1191 92.0013 50.4475C91.3124 49.7759 90.968 48.8188 90.968 47.5764V29.6949C90.968 28.4524 91.2952 27.5122 91.9496 26.8741C92.6384 26.2025 93.5855 25.8667 94.791 25.8667C96.0308 25.8667 96.9779 26.2025 97.6323 26.8741C98.2867 27.5122 98.6139 28.4524 98.6139 29.6949V32.3141H98.0973C98.5106 30.2993 99.4232 28.7379 100.835 27.6297C102.247 26.5216 104.073 25.9003 106.311 25.766C107.172 25.6988 107.827 25.9171 108.275 26.4208C108.757 26.8909 109.015 27.6801 109.049 28.7882C109.118 29.8292 108.894 30.6519 108.378 31.2564C107.896 31.8608 107.069 32.2302 105.898 32.3645L104.71 32.4653C102.747 32.6332 101.283 33.1872 100.319 34.1275C99.3888 35.0677 98.9239 36.4277 98.9239 38.2075V47.5764C98.9239 48.8188 98.5794 49.7759 97.8906 50.4475C97.2363 51.1191 96.2719 51.4549 94.9976 51.4549Z" fill="#FF7020"/>
<path d="M116.649 51.4549C115.478 51.4549 114.583 51.1359 113.963 50.4979C113.343 49.8598 113.033 48.97 113.033 47.8282V18.6638C113.033 17.522 113.36 16.6322 114.015 15.9941C114.703 15.3561 115.633 15.0371 116.804 15.0371C117.837 15.0371 118.647 15.2386 119.232 15.6416C119.852 16.0109 120.421 16.6658 120.937 17.606L132.871 38.8623H131.114L143.048 17.606C143.565 16.6658 144.116 16.0109 144.701 15.6416C145.321 15.2386 146.131 15.0371 147.129 15.0371C148.3 15.0371 149.196 15.3561 149.816 15.9941C150.47 16.6322 150.797 17.522 150.797 18.6638V47.8282C150.797 48.97 150.487 49.8598 149.867 50.4979C149.247 51.1359 148.352 51.4549 147.181 51.4549C146.01 51.4549 145.097 51.1359 144.443 50.4979C143.823 49.8598 143.513 48.97 143.513 47.8282V27.4282H144.65L135.041 44.2016C134.627 44.8396 134.18 45.3265 133.697 45.6623C133.25 45.9645 132.647 46.1156 131.889 46.1156C131.132 46.1156 130.512 45.9477 130.03 45.6119C129.547 45.2761 129.117 44.806 128.738 44.2016L119.026 27.3779H120.266V47.8282C120.266 48.97 119.956 49.8598 119.336 50.4979C118.75 51.1359 117.855 51.4549 116.649 51.4549Z" fill="#FF7020"/>
<path d="M170.686 51.5556C167.689 51.5556 165.106 51.0351 162.936 49.9941C160.801 48.9196 159.148 47.4253 157.977 45.5112C156.84 43.5635 156.272 41.2801 156.272 38.6608C156.272 36.1087 156.823 33.8756 157.925 31.9616C159.027 30.0139 160.56 28.5028 162.523 27.4282C164.521 26.3201 166.777 25.766 169.291 25.766C171.116 25.766 172.769 26.0682 174.25 26.6727C175.731 27.2435 177.006 28.083 178.073 29.1912C179.141 30.2658 179.95 31.5922 180.501 33.1704C181.052 34.7151 181.328 36.4445 181.328 38.3586C181.328 38.9966 181.121 39.4835 180.708 39.8193C180.295 40.1216 179.692 40.2727 178.9 40.2727H162.678V36.3438H175.697L174.87 37.049C174.87 35.6722 174.664 34.5304 174.25 33.6238C173.837 32.6835 173.234 31.9783 172.442 31.5082C171.684 31.0381 170.737 30.803 169.601 30.803C168.326 30.803 167.242 31.0885 166.346 31.6593C165.451 32.2302 164.762 33.0529 164.28 34.1275C163.797 35.202 163.556 36.4949 163.556 38.006V38.409C163.556 40.9611 164.159 42.8416 165.365 44.0504C166.604 45.2593 168.43 45.8638 170.841 45.8638C171.667 45.8638 172.614 45.763 173.682 45.5616C174.75 45.3601 175.748 45.0411 176.678 44.6045C177.47 44.2351 178.176 44.1176 178.796 44.2519C179.416 44.3527 179.899 44.6213 180.243 45.0579C180.587 45.4944 180.777 45.9981 180.811 46.569C180.88 47.1398 180.76 47.7107 180.45 48.2816C180.14 48.8188 179.623 49.2722 178.9 49.6416C177.729 50.2796 176.403 50.7497 174.922 51.0519C173.475 51.3877 172.063 51.5556 170.686 51.5556Z" fill="#FF7020"/>
<path d="M194.441 51.5556C192.581 51.5556 190.911 51.203 189.43 50.4979C187.949 49.7927 186.795 48.8356 185.968 47.6267C185.142 46.4179 184.729 45.0579 184.729 43.5467C184.729 41.7334 185.211 40.3062 186.175 39.2653C187.139 38.1907 188.706 37.4351 190.876 36.9986C193.046 36.5285 195.922 36.2934 199.504 36.2934H202.242V40.2223H199.555C197.799 40.2223 196.37 40.323 195.267 40.5245C194.2 40.6924 193.425 40.9946 192.943 41.4312C192.495 41.8677 192.271 42.4722 192.271 43.2445C192.271 44.1848 192.598 44.9571 193.253 45.5616C193.941 46.166 194.923 46.4682 196.197 46.4682C197.196 46.4682 198.074 46.25 198.832 45.8134C199.624 45.3433 200.244 44.722 200.692 43.9497C201.14 43.1438 201.363 42.2371 201.363 41.2297V35.4371C201.363 33.9596 201.019 32.9186 200.33 32.3141C199.641 31.6761 198.47 31.3571 196.817 31.3571C195.887 31.3571 194.871 31.4746 193.769 31.7097C192.702 31.9112 191.513 32.2638 190.205 32.7675C189.447 33.1033 188.775 33.1872 188.19 33.0193C187.604 32.8179 187.157 32.482 186.847 32.0119C186.537 31.5082 186.382 30.9709 186.382 30.4001C186.382 29.7956 186.554 29.2248 186.898 28.6875C187.243 28.1166 187.811 27.6969 188.603 27.4282C190.222 26.7902 191.737 26.3537 193.149 26.1186C194.596 25.8835 195.922 25.766 197.127 25.766C199.779 25.766 201.949 26.1522 203.637 26.9245C205.359 27.6633 206.65 28.8218 207.511 30.4001C208.372 31.9448 208.803 33.9428 208.803 36.3941V47.5764C208.803 48.8188 208.493 49.7759 207.873 50.4475C207.253 51.1191 206.357 51.4549 205.186 51.4549C204.015 51.4549 203.103 51.1191 202.448 50.4475C201.828 49.7759 201.518 48.8188 201.518 47.5764V45.7127L201.88 46.0149C201.673 47.1566 201.226 48.1472 200.537 48.9867C199.883 49.7927 199.039 50.4307 198.005 50.9008C196.972 51.3374 195.784 51.5556 194.441 51.5556Z" fill="#FF7020"/>
<path d="M223.766 51.5556C220.701 51.5556 218.41 50.7329 216.895 49.0875C215.38 47.4085 214.622 44.9235 214.622 41.6327V18.9156C214.622 17.6396 214.949 16.6825 215.603 16.0445C216.292 15.3729 217.274 15.0371 218.548 15.0371C219.788 15.0371 220.735 15.3729 221.389 16.0445C222.078 16.6825 222.423 17.6396 222.423 18.9156V41.3304C222.423 42.7072 222.715 43.7314 223.301 44.403C223.921 45.0411 224.73 45.3601 225.729 45.3601C226.005 45.3601 226.263 45.3433 226.504 45.3097C226.745 45.2761 227.003 45.2593 227.279 45.2593C227.83 45.1922 228.209 45.3601 228.415 45.763C228.656 46.1324 228.777 46.888 228.777 48.0297C228.777 49.0371 228.57 49.8095 228.157 50.3467C227.744 50.8504 227.107 51.1862 226.246 51.3541C225.901 51.3877 225.505 51.4213 225.057 51.4549C224.61 51.522 224.179 51.5556 223.766 51.5556Z" fill="#FF7020"/>
<path d="M290.121 14.6222L295.697 14.446V34.1772H288.97L290.121 14.6222Z" fill="white"/>
<ellipse cx="272.952" cy="48.6232" rx="6.63755" ry="8.4562" fill="white"/>
<path d="M260.774 21.0523C260.774 25.7225 257.537 24.9281 253.871 24.9281C250.205 24.9281 247.765 23.6949 247.765 22.0212C247.765 17.351 250.471 16.7361 254.137 16.7361C257.803 16.7361 260.774 16.3821 260.774 21.0523Z" fill="white"/>
<path d="M244.467 5.87887C244.14 6.06096 243.709 6.45115 243.487 6.7503L243.094 7.30957V14.281V21.2654L243.434 22.1368C244.663 25.2714 247.302 27.3524 250.478 27.6775L251.327 27.7686L251.392 43.5063L251.458 59.244L251.745 59.7122C251.915 59.9723 252.294 60.3495 252.595 60.5576C253.078 60.8958 253.248 60.9348 254.137 60.9348C255.012 60.9348 255.195 60.8958 255.653 60.5836C255.927 60.3885 256.306 60.0114 256.489 59.7382L256.816 59.257L256.881 43.5193L256.946 27.7686L257.796 27.6775C261.049 27.3524 263.898 25.0242 264.891 21.9157C265.179 21.0183 265.179 20.8752 265.179 14.1639V7.32258L264.826 6.81533C264.251 6.00893 263.65 5.67077 262.644 5.61874C261.572 5.56672 260.801 5.91789 260.213 6.7503L259.821 7.30957L259.756 10.5742L259.69 13.8518H258.318H256.946L256.881 10.5872C256.816 7.3746 256.816 7.32258 256.489 6.85435C255.94 6.03495 255.274 5.67077 254.28 5.61874C253.209 5.56672 252.438 5.91789 251.85 6.7503L251.458 7.30957L251.392 10.5742L251.327 13.8518H249.955H248.583L248.518 10.5872L248.452 7.32258L248.099 6.81533C247.524 6.00893 246.923 5.67077 245.917 5.61874C245.198 5.57973 244.95 5.63175 244.467 5.87887ZM259.625 19.7697C259.625 20.5631 258.985 21.4345 258.057 21.9287C257.639 22.1498 257.273 22.1758 254.137 22.1758C250.844 22.1758 250.648 22.1628 250.151 21.8897C249.262 21.4215 248.648 20.5501 248.648 19.7697V19.3795H254.137H259.625V19.7697Z" fill="#FF7020"/>
<path d="M271.556 5.87888C271.229 6.06096 270.798 6.45115 270.576 6.7503L270.184 7.30957L270.119 21.8117L270.053 36.3138L268.956 36.6389C266.211 37.4193 264.16 39.0581 263.01 41.3602C262.004 43.4022 261.834 44.2476 261.834 47.2131C261.834 49.3852 261.873 49.9054 262.108 50.8549C263.389 55.8883 266.224 59.322 270.184 60.6357C270.955 60.8828 271.373 60.9348 272.863 60.9348C274.353 60.9348 274.771 60.8828 275.542 60.6357C279.501 59.322 282.337 55.8883 283.618 50.8549C283.853 49.9054 283.892 49.3852 283.892 47.2131C283.892 45.028 283.853 44.5338 283.604 43.6363C282.624 40.0336 280.285 37.6404 276.77 36.6389L275.672 36.3138L275.607 21.8247L275.542 7.32258L275.189 6.81533C274.614 6.00893 274.013 5.67077 273.007 5.61875C272.288 5.57973 272.04 5.63175 271.556 5.87888ZM275.437 42.0106C276.901 42.5048 277.855 43.6363 278.221 45.2752C278.469 46.4067 278.325 49.2421 277.959 50.3997C277.28 52.5327 275.986 54.3276 274.588 55.0299C273.712 55.4721 272.027 55.4851 271.164 55.0429C269.674 54.2756 268.472 52.6107 267.74 50.3346C267.479 49.4762 267.44 49.099 267.44 47.2131C267.44 45.1191 267.453 45.054 267.819 44.2476C268.472 42.843 269.805 41.9325 271.556 41.6984C271.556 41.6984 274.627 41.7504 275.437 42.0106Z" fill="#FF7020"/>
<path d="M296.751 5.82685C295.079 6.69827 292.491 9.06543 290.897 11.1595C286.924 16.427 284.611 23.8667 284.076 33.1662C283.88 36.5739 283.971 37.0811 284.873 37.9786C285.748 38.85 285.983 38.889 290.949 38.889H295.209V48.9429V59.0099L295.51 59.5561C295.667 59.8683 296.059 60.2975 296.372 60.5316C296.882 60.8958 297.013 60.9348 297.94 60.9348C298.829 60.9348 299.012 60.8958 299.469 60.5836C299.744 60.3885 300.123 60.0114 300.306 59.7382L300.632 59.257V33.2963V7.32258L300.28 6.81533C299.705 5.99593 299.103 5.67077 298.097 5.61874C297.444 5.59273 297.117 5.63175 296.751 5.82685ZM295.209 24.0618V33.2963H292.439H289.682L289.773 31.9566C290.008 28.3799 290.884 24.0618 292.021 20.8752C292.779 18.7682 294.817 14.8273 295.144 14.8273C295.183 14.8273 295.209 18.9763 295.209 24.0618Z" fill="#FF7020"/>
</svg>
